<svg width="162" height="50" viewBox="0 0 162 50" fill="none" xmlns="http://www.w3.org/2000/svg">
<path d="M85.3055 12.6072C85.3055 14.4074 83.856 15.86 82.0527 15.86C80.2494 15.86 78.7999 14.4105 78.7999 12.6072C78.7999 10.8071 80.2056 9.35445 82.0527 9.35445C83.8967 9.40141 85.3055 10.8509 85.3055 12.6072ZM71.8592 19.1535C71.8592 19.4603 71.8592 19.9455 71.8592 19.9455C71.8592 19.9455 70.322 17.9231 66.9816 17.9231C61.5342 17.9231 57.2703 22.0963 57.2703 27.8536C57.2703 33.5671 61.4873 37.7841 66.9816 37.7841C70.322 37.7841 71.8592 35.7179 71.8592 35.7179V36.5538C71.8592 36.9482 72.166 37.2582 72.5636 37.2582H76.6053V18.4522C76.6053 18.4522 72.9142 18.4522 72.5636 18.4522C72.166 18.4522 71.8592 18.8028 71.8592 19.1535ZM71.8592 31.2379C71.111 32.3367 69.6176 33.3041 67.8175 33.3041C64.6086 33.3041 62.1479 31.2817 62.1479 27.9006C62.1479 24.4725 64.6086 22.497 67.8175 22.497C69.5738 22.497 71.1579 23.5082 71.8592 24.5633V31.2379ZM79.6358 18.4522H84.4257V37.302H79.6358V18.4522ZM151.475 17.9669C148.179 17.9669 146.598 19.9894 146.598 19.9894V9.40141H141.808V37.302C141.808 37.302 145.499 37.302 145.85 37.302C146.244 37.302 146.554 36.9514 146.554 36.5976V35.7617C146.554 35.7617 148.091 37.8279 151.432 37.8279C156.879 37.8279 161.143 33.6109 161.143 27.8974C161.143 22.1433 156.879 17.9669 151.475 17.9669ZM150.683 33.2165C148.839 33.2165 147.387 32.2491 146.642 31.1502V24.4287C147.39 23.4174 149.015 22.3624 150.683 22.3624C153.892 22.3624 156.353 24.3848 156.353 27.7659C156.353 31.2379 153.892 33.2165 150.683 33.2165ZM139.303 26.1411V37.3458H134.513V26.6702C134.513 23.5521 133.502 22.3217 130.822 22.3217C129.373 22.3217 127.88 23.0699 126.912 24.1657V37.302H122.122V18.4522H125.945C126.339 18.4522 126.649 18.8028 126.649 19.1566V19.9487C128.055 18.4992 129.902 17.9262 131.746 17.9262C133.856 17.9262 135.612 18.5399 137.018 19.7264C138.646 21.1759 139.303 22.976 139.303 26.1411ZM110.392 17.9669C107.095 17.9669 105.514 19.9894 105.514 19.9894V9.40141H100.724V37.302C100.724 37.302 104.415 37.302 104.766 37.302C105.16 37.302 105.47 36.9514 105.47 36.5976V35.7617C105.47 35.7617 107.007 37.8279 110.348 37.8279C115.795 37.8279 120.059 33.6109 120.059 27.8974C120.103 22.1433 115.842 17.9669 110.392 17.9669ZM109.603 33.2165C107.759 33.2165 106.306 32.2491 105.561 31.1502V24.4287C106.309 23.4174 107.934 22.3624 109.603 22.3624C112.812 22.3624 115.272 24.3848 115.272 27.7659C115.269 31.2379 112.808 33.2165 109.603 33.2165ZM96.5508 17.9669C98.0003 17.9669 98.7486 18.2299 98.7486 18.2299V22.6692C98.7486 22.6692 94.7507 21.3074 92.2462 24.1625V37.3427H87.4562V18.4491C87.4562 18.4491 91.1473 18.4491 91.4979 18.4491C91.8924 18.4491 92.2023 18.7997 92.2023 19.1535V19.9455C93.1259 18.8905 95.0575 17.9669 96.5508 17.9669ZM46.5947 35.5864C46.3317 34.9728 46.1125 34.3122 45.8464 33.7862C45.452 32.8627 45.0544 32.0299 44.7037 31.2379L44.6599 31.194C41.188 23.6804 37.4969 16.0791 33.5867 8.56553L33.4552 8.25872C33.0608 7.51048 32.6632 6.72156 32.2687 5.88567C31.7866 4.96212 31.2575 4.0417 30.4686 3.11815C28.8876 1.09573 26.5584 0 24.0976 0C21.5931 0 19.3515 1.09886 17.6829 2.98666C16.9347 3.91021 16.3649 4.83063 15.8828 5.75418C15.4883 6.54624 15.0907 7.33517 14.6962 8.12723L14.5647 8.43404C10.6984 15.9477 6.96346 23.5489 3.49154 31.0625L3.44771 31.1502C3.09708 31.9423 2.69948 32.8189 2.30502 33.6986C2.04204 34.2684 1.82289 34.8413 1.55679 35.4987C0.896215 37.3427 0.720897 39.1021 0.943175 40.9023C1.51296 44.681 4.0175 47.7991 7.44559 49.2079C8.7636 49.7777 10.0816 50 11.4873 50C11.8818 50 12.4108 49.9562 12.8053 49.9123C14.4739 49.6932 16.1457 49.1641 17.8144 48.1999C19.8806 47.0572 21.8123 45.3885 24.01 42.9716C26.2077 45.3885 28.227 47.0133 30.2056 48.1999C31.8742 49.1672 33.546 49.6932 35.2147 49.9123C35.6091 49.9562 36.1382 50 36.5327 50C37.9384 50 39.344 49.737 40.5744 49.2079C44.0901 47.8023 46.5508 44.5933 47.0768 40.9023C47.4713 39.1898 47.2521 37.4335 46.5947 35.5864ZM24.01 38.1786C21.2863 34.7505 19.5707 31.5447 18.9571 28.8648C18.6941 27.7221 18.6503 26.7109 18.8256 25.7905C18.9132 24.9984 19.2201 24.2972 19.6176 23.6804C20.585 22.3186 22.166 21.4827 24.01 21.4827C25.854 21.4827 27.5257 22.2747 28.4023 23.6804C28.7968 24.294 29.1067 24.9984 29.1944 25.7905C29.3259 26.714 29.282 27.7253 29.0629 28.8648C28.49 31.5447 26.7337 34.7536 24.01 38.1786ZM44.0025 40.5516C43.6518 43.1438 41.8924 45.4292 39.4317 46.3966C38.2452 46.8787 36.9271 47.0572 35.6091 46.8787C34.3349 46.7472 33.1046 46.3089 31.7866 45.5607C29.9864 44.5495 28.1832 43.0123 26.0731 40.6831C29.3697 36.6414 31.389 32.9065 32.1372 29.6099C32.4878 28.0728 32.5317 26.6671 32.4002 25.3491C32.181 24.0749 31.7396 22.9322 31.0383 21.921C29.5012 19.6794 26.8652 18.3614 23.963 18.3614C21.0609 18.3614 18.4718 19.7232 16.8877 21.921C16.1833 22.9322 15.745 24.0749 15.5259 25.3491C15.3067 26.6671 15.3944 28.1166 15.7888 29.6099C16.5371 32.9065 18.6002 36.6852 21.8529 40.7269C19.7867 43.0123 17.9427 44.5933 16.1395 45.6045C14.8215 46.3528 13.5911 46.7472 12.3169 46.9225C10.9551 47.054 9.68089 46.8787 8.49436 46.4404C6.03365 45.4292 4.27734 43.1877 3.92358 40.5955C3.79209 39.3213 3.87975 38.0909 4.36187 36.6852C4.49336 36.2031 4.75634 35.674 5.02244 35.1042C5.37308 34.3122 5.77067 33.4356 6.16514 32.5997L6.20897 32.5121C9.68089 25.0423 13.372 17.441 17.2383 10.015L17.3698 9.70822C17.7643 8.95999 18.1619 8.17106 18.5563 7.42283C18.9508 6.63077 19.3922 5.88567 19.962 5.2251C21.0171 4.03857 22.4227 3.38113 23.9599 3.38113C25.4971 3.38113 26.9027 4.0417 27.9578 5.2251C28.5275 5.88567 28.969 6.63077 29.3634 7.42283C29.7579 8.17106 30.1555 8.95999 30.55 9.70822L30.6814 10.015C34.504 17.4848 38.1951 25.0861 41.667 32.5559V32.5997C42.0615 33.3918 42.4152 34.3122 42.8097 35.1042C43.0727 35.7179 43.2918 36.2031 43.4703 36.6852C44.0463 38.0033 44.2216 39.2336 44.0025 40.5516Z" fill="#FF5A5F"/>
</svg>
