<svg width="197" height="38" viewBox="0 0 197 38" fill="none" xmlns="http://www.w3.org/2000/svg">
<path d="M12.5818 37.4189H5.18411V18.9704H0.142914V12.9662H5.18411V8.69432C5.18411 3.6316 7.4115 0 14.7931 0C16.3533 0 18.8067 0.31205 18.8067 0.31205V5.89127H16.2296C13.6094 5.89127 12.5818 6.68753 12.5818 8.89339V12.9662H18.7044L18.161 18.9704H12.5818V37.4189ZM29.5616 12.4873C29.454 12.4873 29.341 12.4927 29.2334 12.4927C22.3737 12.4927 19.2317 17.6523 19.2317 24.98C19.2317 34.207 23.3045 37.9032 29.2872 37.9032C32.709 37.9032 34.9579 36.4613 36.3244 33.7766V37.4243H43.3616V12.9715H36.3244V16.7323C35.2107 14.3112 32.8973 12.5196 29.5616 12.4873ZM31.3532 18.2656C34.2369 18.2656 35.9639 20.2778 35.9639 23.6942L35.9693 27.1859C35.9693 29.4886 34.5382 32.1841 31.3532 32.1841C26.4518 32.1841 26.581 26.89 26.581 25.1253C26.581 19.1964 29.1903 18.2656 31.3532 18.2656ZM46.2077 25.2006C46.2077 22.2308 46.0679 12.5088 58.7327 12.5088C63.817 12.5088 65.9421 14.1283 65.9421 14.1283L64.2366 19.4223C64.2366 19.4223 62.1168 18.2549 59.3514 18.2549C55.8113 18.2549 53.557 20.3047 53.557 23.9148L53.5624 26.5026C53.5624 29.9728 55.7414 32.2863 59.3622 32.2863C61.8801 32.2863 64.199 31.108 64.199 31.108L65.8991 36.2891C65.8991 36.2891 63.9569 37.9139 58.7704 37.9139C46.7027 37.9085 46.2077 29.1873 46.2077 25.2006ZM107.208 12.4927C114.068 12.4927 117.258 17.6523 117.258 24.98C117.258 34.207 113.185 37.9032 107.202 37.9032C103.781 37.9032 101.252 36.4613 99.8855 33.7766V37.4243L92.9343 37.4189V0.742463L100.311 0.096847V16.3987C101.376 13.5472 104.873 12.4927 107.208 12.4927ZM105.137 18.2656C102.253 18.2656 100.311 20.2778 100.311 23.6942L100.305 27.1859C100.3 29.4886 101.65 32.1841 105.137 32.1841C110.038 32.1841 109.909 26.89 109.909 25.1253C109.909 19.1964 107.299 18.2656 105.137 18.2656ZM78.7415 12.5142C70.9618 12.5142 66.8514 16.7592 66.8514 24.2968V25.6956C66.8514 35.4821 72.6189 38 79.5001 38C86.1876 38 89.2113 36.1277 89.2113 36.1277L87.8286 31.1457C87.8286 31.1457 84.2669 32.6629 80.3824 32.6629C76.3527 32.6629 74.6203 31.6353 74.1738 27.7616H89.7977V23.7641C89.8031 15.5971 85.1869 12.5142 78.7415 12.5142ZM78.9298 17.5016C81.6253 17.5016 83.3684 19.1533 83.2716 22.984H74.1899C74.3459 18.9543 76.229 17.5016 78.9298 17.5016ZM131.967 12.482C123.978 12.482 119.771 16.9851 119.771 25.0554C119.771 36.1277 127.023 37.9139 131.983 37.9139C139.247 37.9139 144.078 34.0026 144.078 25.1576C144.073 15.9521 138.644 12.482 131.967 12.482ZM131.865 18.2871C135.378 18.2871 136.772 20.918 136.772 23.9094V26.4811C136.772 30.1073 134.824 32.2056 131.854 32.2056C129.073 32.2056 127.12 30.2418 127.12 26.4811V23.9094C127.12 19.8958 129.444 18.2871 131.865 18.2871ZM158.771 12.482C150.782 12.482 146.574 16.9851 146.574 25.0554C146.574 36.1277 153.827 37.9139 158.787 37.9139C166.051 37.9139 170.882 34.0026 170.882 25.1576C170.877 15.9521 165.448 12.482 158.771 12.482ZM158.674 18.2871C162.188 18.2871 163.581 20.918 163.581 23.9094V26.4811C163.581 30.1073 161.633 32.2056 158.664 32.2056C155.882 32.2056 153.929 30.2418 153.929 26.4811V23.9094C153.929 19.8958 156.253 18.2871 158.674 18.2871ZM173.669 37.4189V0.742463L181.067 0.096847V24.6787L188.41 12.9662H196.228L188.572 25.0984L196.524 37.4189H188.685L181.067 25.4589V37.4189H173.669Z" fill="#1877F2"/>
</svg>
