<svg width="153" height="50" viewBox="0 0 153 50" fill="none" xmlns="http://www.w3.org/2000/svg">
<path d="M37.8837 17.6568H20.062V22.9373H32.6857C32.0669 30.363 25.8788 33.4983 20.062 33.4983C12.5951 33.4983 6.1182 27.6403 6.1182 19.4307C6.1182 11.4275 12.3063 5.28065 20.062 5.28065C26.0438 5.28065 29.5917 9.11727 29.5917 9.11727L33.3045 5.28065C33.3045 5.28065 28.5603 0.000152588 19.897 0.000152588C8.88221 0.000152588 0.342651 9.32354 0.342651 19.3482C0.342651 29.2079 8.38716 38.8201 20.1858 38.8201C30.5818 38.8201 38.1725 31.6832 38.1725 21.1634C38.1725 18.9357 37.8837 17.6568 37.8837 17.6568Z" fill="#4285F4"/>
<path d="M52.4469 13.8202C45.145 13.8202 39.9057 19.5545 39.9057 26.1964C39.9057 32.962 44.9799 38.7788 52.5294 38.7788C59.3776 38.7788 64.9468 33.5396 64.9468 26.3614C64.9881 18.0693 58.47 13.8202 52.4469 13.8202ZM52.5294 18.7294C56.1185 18.7294 59.5426 21.6172 59.5426 26.3201C59.5426 30.8993 56.1597 33.9109 52.5294 33.9109C48.5278 33.9109 45.3925 30.7343 45.3925 26.3201C45.3925 21.9472 48.4865 18.7294 52.5294 18.7294Z" fill="#EA4335"/>
<path d="M79.756 13.8202C72.4541 13.8202 67.2148 19.5545 67.2148 26.1964C67.2148 32.962 72.2891 38.7788 79.8385 38.7788C86.6867 38.7788 92.256 33.5396 92.256 26.3614C92.256 18.0693 85.7378 13.8202 79.756 13.8202ZM79.8385 18.7294C83.4276 18.7294 86.8517 21.6172 86.8517 26.3201C86.8517 30.8993 83.4689 33.9109 79.8385 33.9109C75.8369 33.9109 72.7016 30.7343 72.7016 26.3201C72.6604 21.9472 75.7957 18.7294 79.8385 18.7294Z" fill="#FBBC05"/>
<path d="M106.49 13.8202C99.7652 13.8202 94.526 19.6783 94.526 26.2789C94.526 33.7871 100.632 38.7788 106.407 38.7788C109.955 38.7788 111.853 37.3762 113.255 35.726V38.2013C113.255 42.4917 110.656 45.0907 106.696 45.0907C102.901 45.0907 100.962 42.2441 100.302 40.6352L95.5161 42.6567C97.2075 46.2458 100.632 49.9999 106.737 49.9999C113.42 49.9999 118.495 45.792 118.495 37.0049V14.5628H113.255V16.6667C111.646 14.9753 109.419 13.8202 106.49 13.8202ZM106.985 18.7294C110.285 18.7294 113.668 21.5347 113.668 26.3201C113.668 31.1881 110.285 33.8696 106.943 33.8696C103.354 33.8696 100.054 30.9818 100.054 26.3614C100.013 21.5759 103.478 18.7294 106.985 18.7294Z" fill="#4285F4"/>
<path d="M141.72 13.8202C135.408 13.8202 130.086 18.8532 130.086 26.2789C130.086 34.1584 136.027 38.8201 142.339 38.8201C147.619 38.8201 150.878 35.9323 152.776 33.3333L148.444 30.4455C147.33 32.1782 145.433 33.8696 142.339 33.8696C138.832 33.8696 137.223 31.9307 136.233 30.0742L152.982 23.1436L152.116 21.1221C150.507 17.1205 146.712 13.8202 141.72 13.8202ZM141.967 18.6056C144.236 18.6056 145.886 19.802 146.588 21.2872L135.408 25.9488C134.913 22.3185 138.337 18.6056 141.967 18.6056Z" fill="#EA4335"/>
<path d="M127.611 1.27911H122.124V38.0776H127.611V1.27911Z" fill="#34A853"/>
</svg>
