<svg width="211" height="46" viewBox="0 0 211 46" fill="none" xmlns="http://www.w3.org/2000/svg">
<path d="M210.852 20.807V17.0893H206.246V11.3186L206.08 11.3741L201.752 12.7058H201.641V17.0893H194.816V14.6479C194.816 13.5381 195.093 12.6503 195.593 12.0954C196.092 11.5406 196.813 11.2076 197.701 11.2076C198.367 11.2076 199.033 11.3741 199.699 11.6515L199.865 11.707V7.82289L199.81 7.76741C199.199 7.54546 198.312 7.43448 197.257 7.43448C195.926 7.43448 194.705 7.71192 193.651 8.32228C192.596 8.87716 191.764 9.70947 191.154 10.7637C190.543 11.818 190.266 13.0387 190.266 14.3704V17.0338H187.048V20.7515H190.266V36.399H194.871V20.7515H201.696V30.7392C201.696 34.8453 203.638 36.8984 207.412 36.8984C208.022 36.8984 208.688 36.8429 209.354 36.6764C210.02 36.51 210.519 36.399 210.796 36.2325L210.852 36.177V32.4594L210.685 32.5703C210.408 32.7368 210.13 32.8478 209.742 32.9587C209.354 33.0697 209.076 33.1252 208.854 33.1252C207.966 33.1252 207.301 32.9033 206.912 32.4039C206.524 31.9045 206.302 31.0722 206.302 29.9069V20.807H210.852ZM176.782 33.1252C175.118 33.1252 173.786 32.5703 172.843 31.4606C171.9 30.3508 171.456 28.7972 171.456 26.7996C171.456 24.7466 171.955 23.1375 172.843 22.0277C173.786 20.918 175.062 20.3631 176.727 20.3631C178.336 20.3631 179.612 20.9179 180.5 21.9722C181.388 23.0265 181.887 24.6356 181.887 26.6887C181.887 28.7972 181.443 30.4063 180.611 31.4606C179.723 32.6258 178.447 33.1252 176.782 33.1252ZM176.949 16.6454C173.786 16.6454 171.234 17.5887 169.403 19.4198C167.572 21.2509 166.684 23.8033 166.684 27.0216C166.684 30.0734 167.572 32.4594 169.347 34.235C171.123 36.0106 173.509 36.8984 176.45 36.8984C179.557 36.8984 181.998 35.9551 183.829 34.0685C185.66 32.1819 186.548 29.685 186.548 26.5777C186.548 23.5259 185.716 21.0289 183.996 19.3088C182.331 17.5332 180.001 16.6454 176.949 16.6454ZM159.304 16.6454C157.14 16.6454 155.364 17.2003 153.977 18.31C152.59 19.4198 151.924 20.8625 151.924 22.5826C151.924 23.4704 152.091 24.3027 152.368 24.9685C152.645 25.6344 153.145 26.2447 153.755 26.7441C154.366 27.2435 155.309 27.7984 156.53 28.2978C157.584 28.7417 158.361 29.0746 158.86 29.4075C159.359 29.685 159.692 29.9624 159.859 30.2399C160.025 30.5173 160.136 30.9057 160.136 31.3496C160.136 32.6258 159.137 33.2917 157.14 33.2917C156.419 33.2917 155.531 33.1252 154.643 32.8478C153.7 32.5148 152.867 32.1264 152.091 31.5161L151.924 31.4051V35.8441L151.98 35.8996C152.645 36.177 153.478 36.4545 154.421 36.6764C155.364 36.8984 156.252 36.9539 157.029 36.9539C159.359 36.9539 161.301 36.399 162.633 35.2892C164.02 34.1795 164.742 32.6813 164.742 30.9057C164.742 29.6295 164.353 28.4643 163.632 27.5765C162.911 26.6887 161.579 25.8563 159.803 25.135C158.361 24.5801 157.473 24.0807 157.084 23.6923C156.696 23.3594 156.53 22.86 156.53 22.1942C156.53 21.6393 156.751 21.1954 157.251 20.807C157.75 20.4186 158.361 20.2521 159.193 20.2521C159.97 20.2521 160.747 20.3631 161.523 20.585C162.3 20.807 162.966 21.1399 163.576 21.5283L163.743 21.6393V17.4222L163.687 17.3667C163.133 17.1448 162.467 16.9228 161.634 16.8119C160.747 16.7564 159.97 16.6454 159.304 16.6454ZM139.883 33.1252C138.219 33.1252 136.887 32.5703 135.944 31.4606C135 30.3508 134.556 28.7972 134.556 26.7996C134.556 24.7466 135.056 23.1375 135.944 22.0277C136.887 20.918 138.163 20.3631 139.828 20.3631C141.437 20.3631 142.713 20.9179 143.601 21.9722C144.489 23.0265 144.988 24.6356 144.988 26.6887C144.988 28.7972 144.544 30.4063 143.712 31.4606C142.88 32.6258 141.603 33.1252 139.883 33.1252ZM140.105 16.6454C136.942 16.6454 134.39 17.5887 132.559 19.4198C130.728 21.2509 129.84 23.8033 129.84 27.0216C129.84 30.0734 130.728 32.4594 132.503 34.235C134.279 36.0106 136.665 36.8984 139.606 36.8984C142.713 36.8984 145.155 35.9551 146.986 34.0685C148.817 32.1819 149.705 29.685 149.705 26.5777C149.705 23.5259 148.872 21.0289 147.152 19.3088C145.488 17.5332 143.102 16.6454 140.105 16.6454ZM122.849 20.4741V17.1448H118.299V36.4545H122.849V26.5777C122.849 24.9131 123.237 23.5259 123.958 22.4716C124.68 21.4173 125.678 20.918 126.899 20.918C127.288 20.918 127.787 20.9734 128.286 21.1399C128.786 21.2509 129.119 21.4173 129.341 21.5838L129.507 21.6948V17.0893L129.452 17.0338C129.008 16.8674 128.453 16.7564 127.676 16.7564C126.511 16.7564 125.512 17.1448 124.624 17.8661C123.903 18.532 123.348 19.3643 122.849 20.4741ZM110.197 16.6454C108.089 16.6454 106.258 17.0893 104.649 17.9771C103.04 18.8649 101.819 20.1411 100.986 21.7503C100.154 23.3594 99.7103 25.246 99.7103 27.299C99.7103 29.1301 100.099 30.7947 100.931 32.2929C101.763 33.7911 102.873 34.9563 104.316 35.7331C105.758 36.51 107.423 36.9539 109.31 36.9539C111.474 36.9539 113.305 36.5099 114.803 35.6776L114.858 35.6221V31.4606L114.692 31.6271C114.026 32.1264 113.249 32.5149 112.472 32.7923C111.696 33.0697 110.919 33.2362 110.308 33.2362C108.533 33.2362 107.09 32.6813 106.036 31.5716C104.982 30.4618 104.482 28.9082 104.482 26.9661C104.482 25.024 105.037 23.4149 106.147 22.2497C107.257 21.0844 108.644 20.4741 110.419 20.4741C111.918 20.4741 113.36 20.9734 114.747 21.9722L114.914 22.0832V17.6997L114.858 17.6442C114.359 17.3667 113.638 17.0893 112.75 16.9229C111.862 16.7564 110.974 16.6454 110.197 16.6454ZM96.603 17.1448H92.053V36.4545H96.603V17.1448ZM94.3835 8.87716C93.6621 8.87716 92.9963 9.15459 92.4414 9.65398C91.8865 10.1534 91.6091 10.8192 91.6091 11.5406C91.6091 12.2619 91.8865 12.9277 92.3859 13.4271C92.9408 13.9265 93.5512 14.1485 94.328 14.1485C95.1048 14.1485 95.7707 13.9265 96.27 13.4271C96.8249 12.9277 97.1024 12.3174 97.1024 11.5406C97.1024 10.8192 96.8249 10.2089 96.3255 9.65398C95.8261 9.15459 95.1603 8.87716 94.3835 8.87716ZM83.064 15.7021V36.4545H87.725V9.48752H81.2884L73.1317 29.5185L65.197 9.48752H58.5385V36.4545H62.922V15.7021H63.0885L71.4671 36.4545H74.7409L82.953 15.7021H83.064Z" fill="#706D6E"/>
<path d="M21.3627 21.8625H0V0.499786H21.3627V21.8625Z" fill="#F1511B"/>
<path d="M44.9994 21.8625H23.6367V0.499786H44.9994V21.8625Z" fill="#80CC28"/>
<path d="M21.3627 45.5002H0V24.082H21.3627V45.5002Z" fill="#00ADEF"/>
<path d="M44.9994 45.5002H23.6367V24.082H44.9994V45.5002Z" fill="#FBBC09"/>
</svg>
