<svg width="168" height="50" viewBox="0 0 168 50" fill="none" xmlns="http://www.w3.org/2000/svg">
<path d="M25.5237 0C11.7211 0 0.523682 11.1974 0.523682 25C0.523682 38.8026 11.7211 50 25.5237 50C39.3262 50 50.5237 38.8026 50.5237 25C50.5694 11.1974 39.3719 0 25.5237 0ZM36.9953 36.0603C36.5383 36.7916 35.5785 37.0201 34.8473 36.5631C28.9515 32.9525 21.5931 32.1755 12.8637 34.1408C12.041 34.3236 11.1727 33.8208 10.9899 32.9525C10.807 32.1298 11.3098 31.2614 12.1782 31.0786C21.7303 28.8848 29.8655 29.8446 36.4926 33.8665C37.2239 34.3693 37.4524 35.3291 36.9953 36.0603ZM40.0575 29.2504C39.5091 30.1645 38.2751 30.4388 37.361 29.8903C30.6425 25.777 20.4048 24.543 12.4524 26.9653C11.4012 27.2852 10.35 26.691 10.0301 25.6856C9.71015 24.6344 10.3043 23.5832 11.3098 23.2632C20.4048 20.521 31.6937 21.8464 39.4176 26.5996C40.3317 27.1481 40.6516 28.3364 40.0575 29.2504ZM40.3317 22.1664C32.2878 17.3675 18.988 16.9561 11.2641 19.287C10.0301 19.6526 8.70467 18.9671 8.33904 17.7331C7.97341 16.4991 8.65896 15.1737 9.89297 14.808C18.7138 12.1115 33.4304 12.66 42.7083 18.1444C43.8052 18.7843 44.1708 20.2468 43.531 21.3437C42.8911 22.4406 41.4286 22.8062 40.3317 22.1664ZM68.5767 23.0804C64.2348 22.0292 63.5036 21.3437 63.5036 19.7898C63.5036 18.3729 64.8747 17.3675 66.8857 17.3675C68.8509 17.3675 70.7705 18.0987 72.7814 19.6069C72.8271 19.6526 72.9186 19.6526 73.01 19.6526C73.1014 19.6526 73.1471 19.6069 73.1928 19.5155L75.2952 16.5448C75.3866 16.4077 75.3409 16.2706 75.2495 16.1792C72.8271 14.2596 70.1306 13.2998 66.9314 13.2998C62.2696 13.2998 59.0246 16.0877 59.0246 20.1097C59.0246 24.4058 61.8582 25.9141 66.7028 27.1024C70.8162 28.0622 71.5474 28.8391 71.5474 30.2559C71.5474 31.8556 70.1306 32.8154 67.8454 32.8154C65.3317 32.8154 63.275 31.947 60.9441 29.9817C60.8984 29.936 60.807 29.8903 60.7156 29.8903C60.6242 29.8903 60.5785 29.936 60.5328 29.9817L58.1562 32.8154C58.0648 32.9525 58.0648 33.0896 58.2019 33.2267C60.8984 35.6033 64.1891 36.883 67.7083 36.883C72.7357 36.883 75.9807 34.1408 75.9807 29.8903C75.9807 26.3254 73.8326 24.3601 68.5767 23.0804ZM87.361 18.83C85.1672 18.83 83.3847 19.6983 81.9222 21.4351V19.4698C81.9222 19.3327 81.7851 19.1956 81.648 19.1956H77.7632C77.6261 19.1956 77.4889 19.3327 77.4889 19.4698V41.4534C77.4889 41.5905 77.6261 41.7276 77.7632 41.7276H81.648C81.7851 41.7276 81.9222 41.5905 81.9222 41.4534V34.5064C83.3847 36.1517 85.1672 36.9744 87.361 36.9744C91.4286 36.9744 95.4962 33.8665 95.4962 27.925C95.4962 21.9378 91.4286 18.83 87.361 18.83ZM91.0173 27.8793C91.0173 30.8958 89.1434 33.0439 86.4926 33.0439C83.8418 33.0439 81.8308 30.8501 81.8308 27.8793C81.8308 24.9543 83.8418 22.7148 86.4926 22.7148C89.0977 22.7605 91.0173 24.9086 91.0173 27.8793ZM106.008 18.83C100.798 18.83 96.7303 22.8519 96.7303 27.9707C96.7303 33.0439 100.798 37.0201 105.962 37.0201C111.173 37.0201 115.286 32.9982 115.286 27.925C115.286 22.8062 111.218 18.83 106.008 18.83ZM106.008 33.0896C103.22 33.0896 101.164 30.8501 101.164 27.925C101.164 24.9543 103.174 22.8062 105.962 22.8062C108.75 22.8062 110.853 25.0457 110.853 27.9707C110.853 30.9415 108.796 33.0896 106.008 33.0896ZM126.392 19.1499H122.142V14.808C122.142 14.6709 122.004 14.5338 121.867 14.5338H117.983C117.845 14.5338 117.708 14.6709 117.708 14.808V19.1499H115.834C115.697 19.1499 115.56 19.287 115.56 19.4241V22.7605C115.56 22.8976 115.697 23.0347 115.834 23.0347H117.708V31.6271C117.708 35.1005 119.445 36.883 122.873 36.883C124.244 36.883 125.387 36.6088 126.483 35.9689C126.575 35.9232 126.621 35.8318 126.621 35.7404V32.5868C126.621 32.4954 126.575 32.404 126.483 32.3583C126.392 32.3126 126.301 32.3126 126.209 32.3583C125.478 32.7239 124.747 32.9068 123.924 32.9068C122.69 32.9068 122.142 32.3583 122.142 31.0786V23.0804H126.392C126.529 23.0804 126.666 22.9433 126.666 22.8062V19.4698C126.712 19.287 126.575 19.1956 126.392 19.1499ZM141.246 19.1956V18.6472C141.246 17.0932 141.84 16.362 143.211 16.362C144.034 16.362 144.674 16.5448 145.405 16.7733C145.496 16.819 145.588 16.7733 145.679 16.7276C145.77 16.6819 145.816 16.5905 145.816 16.4991V13.2541C145.816 13.117 145.725 13.0256 145.633 12.9799C144.856 12.7514 143.897 12.5228 142.434 12.5228C138.869 12.5228 136.995 14.5338 136.995 18.3272V19.1499H135.121C134.984 19.1499 134.847 19.287 134.847 19.4241V22.7605C134.847 22.8976 134.984 23.0347 135.121 23.0347H136.995V36.2888C136.995 36.426 137.132 36.5631 137.27 36.5631H141.154C141.292 36.5631 141.429 36.426 141.429 36.2888V23.0347H145.039L150.569 36.2888C149.93 37.66 149.335 37.9799 148.467 37.9799C147.781 37.9799 147.05 37.7971 146.319 37.3857C146.228 37.34 146.182 37.34 146.09 37.3857C145.999 37.4314 145.953 37.4771 145.908 37.5228L144.582 40.4022C144.536 40.5393 144.582 40.6764 144.719 40.7678C146.09 41.4991 147.324 41.819 148.833 41.819C151.666 41.819 153.266 40.4936 154.637 36.9287L161.355 19.6069C161.401 19.5155 161.401 19.4241 161.31 19.3327C161.264 19.2413 161.173 19.1956 161.081 19.1956H157.059C156.922 19.1956 156.831 19.287 156.785 19.3784L152.672 31.17L148.147 19.3784C148.101 19.287 148.01 19.1956 147.873 19.1956H141.246ZM132.653 19.1499H128.769C128.632 19.1499 128.494 19.287 128.494 19.4241V36.2888C128.494 36.426 128.632 36.5631 128.769 36.5631H132.653C132.791 36.5631 132.928 36.426 132.928 36.2888V19.4241C132.928 19.287 132.791 19.1499 132.653 19.1499ZM130.734 11.4717C129.18 11.4717 127.946 12.7057 127.946 14.2596C127.946 15.8135 129.18 17.0475 130.734 17.0475C132.288 17.0475 133.522 15.8135 133.522 14.2596C133.476 12.7514 132.242 11.4717 130.734 11.4717ZM164.6 24.5887C163.092 24.5887 161.858 23.3547 161.858 21.8464C161.858 20.3382 163.047 19.1042 164.6 19.1042C166.109 19.1042 167.343 20.3382 167.343 21.8464C167.343 23.3547 166.154 24.5887 164.6 24.5887ZM164.6 19.4241C163.184 19.4241 162.132 20.521 162.132 21.8921C162.132 23.2632 163.184 24.3601 164.555 24.3601C165.972 24.3601 167.023 23.2632 167.023 21.8921C167.068 20.521 166.017 19.4241 164.6 19.4241ZM165.24 22.1207L166.017 23.2175H165.377L164.692 22.2121H164.098V23.2175H163.549V20.3382H164.829C165.515 20.3382 165.926 20.6581 165.926 21.2523C165.88 21.755 165.606 22.0292 165.24 22.1207ZM164.783 20.8409H164.098V21.755H164.783C165.149 21.755 165.332 21.5722 165.332 21.298C165.332 21.0238 165.103 20.8409 164.783 20.8409Z" fill="#1ED760"/>
</svg>
